<mxfile host="65bd71144e">
    <diagram id="efDb4qa8SnfP6ArKmAde" name="第 1 页">
        <mxGraphModel dx="1376" dy="851" grid="1" gridSize="10" guides="1" tooltips="1" connect="1" arrows="1" fold="1" page="1" pageScale="1" pageWidth="1169" pageHeight="827" background="#ffffff" math="0" shadow="0">
            <root>
                <mxCell id="0"/>
                <mxCell id="1" parent="0"/>
                <mxCell id="131" value="" style="rounded=0;whiteSpace=wrap;html=1;strokeColor=#030202;strokeWidth=4;fillColor=none;dashed=1;" parent="1" vertex="1">
                    <mxGeometry x="410" y="60" width="550" height="290" as="geometry"/>
                </mxCell>
                <mxCell id="226" value="下部&lt;br&gt;中心板" style="rounded=0;whiteSpace=wrap;html=1;fillColor=#60a917;fontColor=#ffffff;strokeColor=#2D7600;" parent="1" vertex="1">
                    <mxGeometry x="800" y="114.75" width="100" height="100" as="geometry"/>
                </mxCell>
                <mxCell id="2" value="G4控制板" style="rounded=0;whiteSpace=wrap;html=1;fillColor=#1ba1e2;fontColor=#ffffff;strokeColor=#006EAF;" parent="1" vertex="1">
                    <mxGeometry x="600" y="245" width="130" height="90" as="geometry"/>
                </mxCell>
                <mxCell id="3" value="Can1" style="rounded=0;whiteSpace=wrap;html=1;fillColor=#e3c800;fontColor=#000000;strokeColor=#B09500;" parent="1" vertex="1">
                    <mxGeometry x="600" y="245" width="30" height="20" as="geometry"/>
                </mxCell>
                <mxCell id="5" value="Can2" style="rounded=0;whiteSpace=wrap;html=1;fillColor=#e3c800;fontColor=#000000;strokeColor=#B09500;" parent="1" vertex="1">
                    <mxGeometry x="700" y="245" width="30" height="20" as="geometry"/>
                </mxCell>
                <mxCell id="6" value="Xt30" style="rounded=0;whiteSpace=wrap;html=1;fillColor=#e51400;fontColor=#ffffff;strokeColor=#B20000;" parent="1" vertex="1">
                    <mxGeometry x="650" y="315" width="30" height="20" as="geometry"/>
                </mxCell>
                <mxCell id="7" value="底盘&lt;br&gt;中心板" style="rounded=0;whiteSpace=wrap;html=1;fillColor=#60a917;fontColor=#ffffff;strokeColor=#2D7600;" parent="1" vertex="1">
                    <mxGeometry x="470" y="115" width="100" height="100" as="geometry"/>
                </mxCell>
                <mxCell id="8" value="Can" style="rounded=0;whiteSpace=wrap;html=1;fillColor=#e3c800;fontColor=#000000;strokeColor=#B09500;" parent="1" vertex="1">
                    <mxGeometry x="470" y="115" width="100" height="20" as="geometry"/>
                </mxCell>
                <mxCell id="9" value="Can" style="rounded=0;whiteSpace=wrap;html=1;fillColor=#e3c800;fontColor=#000000;strokeColor=#B09500;" parent="1" vertex="1">
                    <mxGeometry x="470" y="194.75" width="100" height="20" as="geometry"/>
                </mxCell>
                <mxCell id="11" value="Xt30" style="rounded=0;whiteSpace=wrap;html=1;fillColor=#e51400;fontColor=#ffffff;strokeColor=#B20000;" parent="1" vertex="1">
                    <mxGeometry x="470" y="135" width="30" height="60" as="geometry"/>
                </mxCell>
                <mxCell id="12" value="Xt30" style="rounded=0;whiteSpace=wrap;html=1;fillColor=#e51400;fontColor=#ffffff;strokeColor=#B20000;" parent="1" vertex="1">
                    <mxGeometry x="540" y="135" width="30" height="60" as="geometry"/>
                </mxCell>
                <mxCell id="13" value="3508电调*4" style="rounded=0;whiteSpace=wrap;html=1;direction=west;flipV=1;" parent="1" vertex="1">
                    <mxGeometry x="440" y="225" width="70" height="40" as="geometry"/>
                </mxCell>
                <mxCell id="15" value="4*驱动轮&lt;br&gt;3508电机" style="rounded=0;whiteSpace=wrap;html=1;direction=west;flipV=1;" parent="1" vertex="1">
                    <mxGeometry x="510" y="227.5" width="70" height="35" as="geometry"/>
                </mxCell>
                <mxCell id="19" value="Can" style="rounded=0;whiteSpace=wrap;html=1;fillColor=#e3c800;fontColor=#000000;strokeColor=#B09500;" parent="1" vertex="1">
                    <mxGeometry x="800" y="115" width="100" height="20" as="geometry"/>
                </mxCell>
                <mxCell id="28" value="" style="shape=link;html=1;exitX=0.5;exitY=0;exitDx=0;exitDy=0;entryX=0;entryY=0.5;entryDx=0;entryDy=0;strokeWidth=3;fillColor=#e3c800;strokeColor=#B09500;rounded=0;" parent="1" source="5" edge="1">
                    <mxGeometry width="100" relative="1" as="geometry">
                        <mxPoint x="700" y="215" as="sourcePoint"/>
                        <mxPoint x="800" y="205.00000000000023" as="targetPoint"/>
                        <Array as="points">
                            <mxPoint x="715" y="205"/>
                        </Array>
                    </mxGeometry>
                </mxCell>
                <mxCell id="30" value="" style="shape=link;html=1;exitX=0.5;exitY=0;exitDx=0;exitDy=0;entryX=1;entryY=0.5;entryDx=0;entryDy=0;fillColor=#e3c800;strokeColor=#B09500;shadow=0;rounded=0;strokeWidth=3;" parent="1" source="3" target="9" edge="1">
                    <mxGeometry width="100" relative="1" as="geometry">
                        <mxPoint x="710" y="275" as="sourcePoint"/>
                        <mxPoint x="810" y="275" as="targetPoint"/>
                        <Array as="points">
                            <mxPoint x="615" y="205"/>
                        </Array>
                    </mxGeometry>
                </mxCell>
                <mxCell id="32" value="" style="shape=link;html=1;entryX=0;entryY=0.5;entryDx=0;entryDy=0;fillColor=#e3c800;strokeColor=#B09500;shadow=0;rounded=0;strokeWidth=3;width=1.724137931034484;" parent="1" target="9" edge="1">
                    <mxGeometry width="100" relative="1" as="geometry">
                        <mxPoint x="450" y="228" as="sourcePoint"/>
                        <mxPoint x="600" y="215" as="targetPoint"/>
                        <Array as="points">
                            <mxPoint x="450" y="205"/>
                        </Array>
                    </mxGeometry>
                </mxCell>
                <mxCell id="37" value="" style="shape=link;html=1;rounded=0;shadow=0;sketch=0;strokeWidth=5;exitX=0;exitY=0.5;exitDx=0;exitDy=0;entryX=1;entryY=0.5;entryDx=0;entryDy=0;fillColor=#e51400;strokeColor=#B20000;" parent="1" source="11" target="13" edge="1">
                    <mxGeometry width="100" relative="1" as="geometry">
                        <mxPoint x="710" y="275" as="sourcePoint"/>
                        <mxPoint x="810" y="275" as="targetPoint"/>
                        <Array as="points">
                            <mxPoint x="430" y="165"/>
                            <mxPoint x="430" y="245"/>
                        </Array>
                    </mxGeometry>
                </mxCell>
                <mxCell id="41" value="" style="shape=link;html=1;rounded=0;shadow=0;sketch=0;strokeWidth=5;entryX=0;entryY=0.5;entryDx=0;entryDy=0;fillColor=#e51400;strokeColor=#B20000;exitX=0.5;exitY=1;exitDx=0;exitDy=0;" parent="1" source="6" edge="1">
                    <mxGeometry width="100" relative="1" as="geometry">
                        <mxPoint x="665" y="305" as="sourcePoint"/>
                        <mxPoint x="800" y="165" as="targetPoint"/>
                        <Array as="points">
                            <mxPoint x="665" y="355"/>
                            <mxPoint x="750" y="355"/>
                            <mxPoint x="750" y="165"/>
                        </Array>
                    </mxGeometry>
                </mxCell>
                <mxCell id="47" value="Dbus" style="rounded=0;whiteSpace=wrap;html=1;fillColor=#e3c800;fontColor=#000000;strokeColor=#B09500;" parent="1" vertex="1">
                    <mxGeometry x="600" y="315" width="30" height="20" as="geometry"/>
                </mxCell>
                <mxCell id="48" value="dt7接收机" style="rounded=0;whiteSpace=wrap;html=1;strokeColor=#314354;strokeWidth=2;fillColor=#647687;fontColor=#ffffff;" parent="1" vertex="1">
                    <mxGeometry x="470" y="315" width="90" height="30" as="geometry"/>
                </mxCell>
                <mxCell id="49" value="" style="html=1;rounded=0;shadow=0;sketch=0;strokeWidth=4;exitX=1;exitY=0.5;exitDx=0;exitDy=0;entryX=0;entryY=0.75;entryDx=0;entryDy=0;fillColor=#e3c800;strokeColor=#54514F;endArrow=none;endFill=0;" parent="1" source="48" target="47" edge="1">
                    <mxGeometry width="100" relative="1" as="geometry">
                        <mxPoint x="710" y="385" as="sourcePoint"/>
                        <mxPoint x="810" y="385" as="targetPoint"/>
                        <Array as="points">
                            <mxPoint x="570" y="330"/>
                        </Array>
                    </mxGeometry>
                </mxCell>
                <mxCell id="134" value="底盘" style="text;html=1;strokeColor=none;fillColor=none;align=center;verticalAlign=middle;whiteSpace=wrap;rounded=0;strokeWidth=7;fontColor=#000000;fontStyle=1;fontSize=22;" parent="1" vertex="1">
                    <mxGeometry x="635" y="115" width="60" height="30" as="geometry"/>
                </mxCell>
                <mxCell id="143" value="底盘" style="text;html=1;strokeColor=none;fillColor=none;align=center;verticalAlign=middle;whiteSpace=wrap;rounded=0;strokeWidth=7;fontColor=#000000;fontStyle=1;fontSize=22;" parent="1" vertex="1">
                    <mxGeometry x="880" y="315" width="60" height="30" as="geometry"/>
                </mxCell>
                <mxCell id="152" value="未绘图：&lt;br&gt;图传云台&lt;br&gt;视觉/小电脑相关" style="text;strokeColor=none;fillColor=none;html=1;whiteSpace=wrap;verticalAlign=middle;overflow=hidden;dashed=1;strokeWidth=4;fontSize=18;fontColor=#000000;fontStyle=1" parent="1" vertex="1">
                    <mxGeometry x="40" y="363" width="157.5" height="109.5" as="geometry"/>
                </mxCell>
                <mxCell id="194" value="" style="edgeStyle=none;html=1;" parent="1" source="154" target="192" edge="1">
                    <mxGeometry relative="1" as="geometry"/>
                </mxCell>
                <mxCell id="154" value="裁判系统&lt;br style=&quot;font-size: 11px;&quot;&gt;（电源管理）" style="rounded=0;whiteSpace=wrap;html=1;strokeWidth=1;fontSize=11;" parent="1" vertex="1">
                    <mxGeometry x="120" y="261.25" width="110" height="72.5" as="geometry"/>
                </mxCell>
                <mxCell id="155" value="双电并联" style="rounded=1;whiteSpace=wrap;html=1;strokeColor=#A50040;strokeWidth=4;fontSize=12;fontColor=#ffffff;fillColor=#d80073;" parent="1" vertex="1">
                    <mxGeometry x="97.5" y="85" width="120" height="60" as="geometry"/>
                </mxCell>
                <mxCell id="157" value="电源分电板" style="rounded=0;whiteSpace=wrap;html=1;strokeColor=#2D7600;strokeWidth=1;fontSize=12;fontColor=#ffffff;fillColor=#60a917;" parent="1" vertex="1">
                    <mxGeometry x="105" y="160" width="85" height="75" as="geometry"/>
                </mxCell>
                <mxCell id="158" value="供电" style="rounded=0;whiteSpace=wrap;html=1;strokeColor=#B20000;strokeWidth=1;fontSize=12;fontColor=#ffffff;fillColor=#e51400;" parent="1" vertex="1">
                    <mxGeometry x="120" y="261.25" width="40" height="20" as="geometry"/>
                </mxCell>
                <mxCell id="160" value="gimbal" style="rounded=0;whiteSpace=wrap;html=1;strokeColor=#B20000;strokeWidth=1;fontSize=12;fontColor=#ffffff;fillColor=#e51400;" parent="1" vertex="1">
                    <mxGeometry x="190" y="313.75" width="40" height="20" as="geometry"/>
                </mxCell>
                <mxCell id="161" value="chassis" style="rounded=0;whiteSpace=wrap;html=1;strokeColor=#B20000;strokeWidth=1;fontSize=12;fontColor=#ffffff;fillColor=#e51400;" parent="1" vertex="1">
                    <mxGeometry x="190" y="261.25" width="40" height="20" as="geometry"/>
                </mxCell>
                <mxCell id="163" value="XT60/30" style="rounded=0;whiteSpace=wrap;html=1;strokeColor=#B20000;strokeWidth=1;fontSize=12;fontColor=#ffffff;fillColor=#e51400;" parent="1" vertex="1">
                    <mxGeometry x="105" y="160" width="85" height="25" as="geometry"/>
                </mxCell>
                <mxCell id="164" value="XT60/30" style="rounded=0;whiteSpace=wrap;html=1;strokeColor=#B20000;strokeWidth=1;fontSize=12;fontColor=#ffffff;fillColor=#e51400;" parent="1" vertex="1">
                    <mxGeometry x="105" y="215" width="85" height="20" as="geometry"/>
                </mxCell>
                <mxCell id="165" value="" style="shape=link;html=1;rounded=0;shadow=0;sketch=0;strokeWidth=5;fontSize=12;fontColor=#000000;entryX=0.25;entryY=1;entryDx=0;entryDy=0;exitX=0.25;exitY=0;exitDx=0;exitDy=0;fillColor=#e51400;strokeColor=#B20000;edgeStyle=orthogonalEdgeStyle;" parent="1" source="163" target="155" edge="1">
                    <mxGeometry width="100" relative="1" as="geometry">
                        <mxPoint x="480" y="435" as="sourcePoint"/>
                        <mxPoint x="580" y="435" as="targetPoint"/>
                    </mxGeometry>
                </mxCell>
                <mxCell id="166" value="" style="shape=link;html=1;rounded=0;shadow=0;sketch=0;strokeWidth=5;fontSize=12;fontColor=#000000;entryX=0.25;entryY=1;entryDx=0;entryDy=0;exitX=0.5;exitY=0;exitDx=0;exitDy=0;fillColor=#e51400;strokeColor=#B20000;edgeStyle=orthogonalEdgeStyle;" parent="1" source="158" target="164" edge="1">
                    <mxGeometry width="100" relative="1" as="geometry">
                        <mxPoint x="480" y="435" as="sourcePoint"/>
                        <mxPoint x="580" y="435" as="targetPoint"/>
                    </mxGeometry>
                </mxCell>
                <mxCell id="168" value="chassis&lt;br&gt;继电器" style="rounded=0;whiteSpace=wrap;html=1;strokeWidth=1;fontSize=11;" parent="1" vertex="1">
                    <mxGeometry x="260" y="175" width="90" height="80" as="geometry"/>
                </mxCell>
                <mxCell id="169" value="gimbal&lt;br&gt;继电器" style="rounded=0;whiteSpace=wrap;html=1;strokeWidth=1;fontSize=11;" parent="1" vertex="1">
                    <mxGeometry x="260" y="80" width="90" height="75" as="geometry"/>
                </mxCell>
                <mxCell id="170" value="" style="shape=link;html=1;rounded=0;shadow=0;sketch=0;strokeWidth=5;fontSize=12;fontColor=#000000;entryX=1;entryY=0.5;entryDx=0;entryDy=0;exitX=0;exitY=0.5;exitDx=0;exitDy=0;edgeStyle=orthogonalEdgeStyle;fillColor=#e51400;strokeColor=#B20000;" parent="1" source="169" target="163" edge="1">
                    <mxGeometry width="100" relative="1" as="geometry">
                        <mxPoint x="480" y="435" as="sourcePoint"/>
                        <mxPoint x="580" y="435" as="targetPoint"/>
                        <Array as="points">
                            <mxPoint x="230" y="118"/>
                            <mxPoint x="230" y="173"/>
                        </Array>
                    </mxGeometry>
                </mxCell>
                <mxCell id="171" value="" style="shape=link;html=1;rounded=0;shadow=0;sketch=0;strokeWidth=5;fontSize=12;fontColor=#000000;exitX=1.035;exitY=0.164;exitDx=0;exitDy=0;exitPerimeter=0;entryX=0;entryY=0.5;entryDx=0;entryDy=0;edgeStyle=orthogonalEdgeStyle;fillColor=#e51400;strokeColor=#B20000;" parent="1" source="157" target="168" edge="1">
                    <mxGeometry width="100" relative="1" as="geometry">
                        <mxPoint x="480" y="435" as="sourcePoint"/>
                        <mxPoint x="580" y="435" as="targetPoint"/>
                        <Array as="points">
                            <mxPoint x="230" y="172"/>
                            <mxPoint x="230" y="215"/>
                        </Array>
                    </mxGeometry>
                </mxCell>
                <mxCell id="172" value="控制信号" style="rounded=0;whiteSpace=wrap;html=1;strokeColor=#B09500;strokeWidth=1;fontSize=12;fontColor=#000000;fillColor=#e3c800;" parent="1" vertex="1">
                    <mxGeometry x="260" y="135" width="90" height="20" as="geometry"/>
                </mxCell>
                <mxCell id="176" value="控制信号" style="rounded=0;whiteSpace=wrap;html=1;strokeColor=#B09500;strokeWidth=1;fontSize=12;fontColor=#000000;fillColor=#e3c800;" parent="1" vertex="1">
                    <mxGeometry x="260" y="235" width="90" height="20" as="geometry"/>
                </mxCell>
                <mxCell id="181" value="" style="shape=link;html=1;rounded=0;shadow=0;sketch=0;strokeWidth=3;fontSize=12;fontColor=#000000;entryX=1;entryY=0.5;entryDx=0;entryDy=0;exitX=0.25;exitY=1;exitDx=0;exitDy=0;fillColor=#e51400;strokeColor=#B20000;edgeStyle=orthogonalEdgeStyle;" parent="1" source="172" target="161" edge="1">
                    <mxGeometry width="100" relative="1" as="geometry">
                        <mxPoint x="480" y="425" as="sourcePoint"/>
                        <mxPoint x="580" y="425" as="targetPoint"/>
                        <Array as="points">
                            <mxPoint x="283" y="165"/>
                            <mxPoint x="250" y="165"/>
                            <mxPoint x="250" y="271"/>
                        </Array>
                    </mxGeometry>
                </mxCell>
                <mxCell id="182" value="" style="shape=link;html=1;rounded=0;shadow=0;sketch=0;strokeWidth=3;fontSize=12;fontColor=#000000;exitX=1;exitY=0.5;exitDx=0;exitDy=0;entryX=0.25;entryY=1;entryDx=0;entryDy=0;edgeStyle=orthogonalEdgeStyle;fillColor=#e51400;strokeColor=#B20000;" parent="1" source="160" target="176" edge="1">
                    <mxGeometry width="100" relative="1" as="geometry">
                        <mxPoint x="480" y="425" as="sourcePoint"/>
                        <mxPoint x="580" y="425" as="targetPoint"/>
                    </mxGeometry>
                </mxCell>
                <mxCell id="183" value="" style="shape=link;html=1;rounded=0;shadow=0;sketch=0;strokeWidth=5;fontSize=12;fontColor=#000000;edgeStyle=orthogonalEdgeStyle;fillColor=#e51400;strokeColor=#B20000;exitX=1;exitY=0.25;exitDx=0;exitDy=0;entryX=0;entryY=0.25;entryDx=0;entryDy=0;" parent="1" source="169" edge="1">
                    <mxGeometry width="100" relative="1" as="geometry">
                        <mxPoint x="350" y="95" as="sourcePoint"/>
                        <mxPoint x="800" y="150" as="targetPoint"/>
                        <Array as="points">
                            <mxPoint x="350" y="95"/>
                            <mxPoint x="750" y="95"/>
                            <mxPoint x="750" y="150"/>
                        </Array>
                    </mxGeometry>
                </mxCell>
                <mxCell id="185" value="" style="shape=link;html=1;rounded=0;shadow=0;sketch=0;strokeWidth=5;fontSize=12;fontColor=#000000;exitX=1;exitY=0.25;exitDx=0;exitDy=0;entryX=0;entryY=0.25;entryDx=0;entryDy=0;fillColor=#e51400;strokeColor=#B20000;edgeStyle=orthogonalEdgeStyle;" parent="1" source="168" target="11" edge="1">
                    <mxGeometry width="100" relative="1" as="geometry">
                        <mxPoint x="480" y="425" as="sourcePoint"/>
                        <mxPoint x="580" y="425" as="targetPoint"/>
                        <Array as="points">
                            <mxPoint x="370" y="195"/>
                            <mxPoint x="370" y="150"/>
                        </Array>
                    </mxGeometry>
                </mxCell>
                <mxCell id="188" value="" style="whiteSpace=wrap;html=1;aspect=fixed;strokeColor=#24B3A9;strokeWidth=5;fontSize=12;fontColor=#000000;fillColor=none;" parent="1" vertex="1">
                    <mxGeometry x="90" y="65" width="295" height="295" as="geometry"/>
                </mxCell>
                <mxCell id="190" value="全车&lt;br&gt;供电" style="text;html=1;strokeColor=none;fillColor=none;align=center;verticalAlign=middle;whiteSpace=wrap;rounded=0;strokeWidth=7;fontColor=#000000;fontStyle=1;fontSize=16;" parent="1" vertex="1">
                    <mxGeometry x="325" y="320" width="60" height="30" as="geometry"/>
                </mxCell>
                <mxCell id="192" value="裁判系统主控" style="rounded=0;whiteSpace=wrap;html=1;" parent="1" vertex="1">
                    <mxGeometry x="20" y="275" width="60" height="53" as="geometry"/>
                </mxCell>
                <mxCell id="193" value="" style="endArrow=none;html=1;entryX=1;entryY=0.75;entryDx=0;entryDy=0;exitX=0;exitY=0.75;exitDx=0;exitDy=0;strokeColor=#050505;strokeWidth=5;" parent="1" source="154" target="192" edge="1">
                    <mxGeometry width="50" height="50" relative="1" as="geometry">
                        <mxPoint x="460" y="448" as="sourcePoint"/>
                        <mxPoint x="510" y="398" as="targetPoint"/>
                    </mxGeometry>
                </mxCell>
                <mxCell id="195" value="裁判系统RFID" style="rounded=0;whiteSpace=wrap;html=1;" parent="1" vertex="1">
                    <mxGeometry x="20" y="218.5" width="60" height="53" as="geometry"/>
                </mxCell>
                <mxCell id="196" value="" style="endArrow=none;html=1;strokeColor=#000000;strokeWidth=5;entryX=0;entryY=0.5;entryDx=0;entryDy=0;exitX=1;exitY=0.75;exitDx=0;exitDy=0;edgeStyle=orthogonalEdgeStyle;rounded=0;" parent="1" source="195" target="154" edge="1">
                    <mxGeometry width="50" height="50" relative="1" as="geometry">
                        <mxPoint x="330" y="378" as="sourcePoint"/>
                        <mxPoint x="380" y="328" as="targetPoint"/>
                        <Array as="points">
                            <mxPoint x="90" y="258"/>
                            <mxPoint x="90" y="298"/>
                        </Array>
                    </mxGeometry>
                </mxCell>
                <mxCell id="198" value="灯条&lt;br&gt;+&lt;br&gt;装甲板" style="rounded=0;whiteSpace=wrap;html=1;" parent="1" vertex="1">
                    <mxGeometry x="20" y="162" width="60" height="53" as="geometry"/>
                </mxCell>
                <mxCell id="199" value="" style="endArrow=none;html=1;rounded=0;strokeColor=#000000;strokeWidth=5;entryX=0.009;entryY=0.36;entryDx=0;entryDy=0;entryPerimeter=0;exitX=1;exitY=0.75;exitDx=0;exitDy=0;edgeStyle=orthogonalEdgeStyle;" parent="1" source="198" target="154" edge="1">
                    <mxGeometry width="50" height="50" relative="1" as="geometry">
                        <mxPoint x="260" y="318" as="sourcePoint"/>
                        <mxPoint x="310" y="268" as="targetPoint"/>
                        <Array as="points">
                            <mxPoint x="100" y="202"/>
                            <mxPoint x="100" y="287"/>
                        </Array>
                    </mxGeometry>
                </mxCell>
                <mxCell id="200" value="图传" style="rounded=0;whiteSpace=wrap;html=1;" parent="1" vertex="1">
                    <mxGeometry x="1060" y="460" width="30" height="58.5" as="geometry"/>
                </mxCell>
                <mxCell id="202" value="场地定位" style="rounded=0;whiteSpace=wrap;html=1;" parent="1" vertex="1">
                    <mxGeometry x="1060" y="518.5" width="30" height="70.5" as="geometry"/>
                </mxCell>
                <mxCell id="204" value="" style="endArrow=none;html=1;rounded=0;strokeColor=#000000;strokeWidth=5;exitX=0.5;exitY=0;exitDx=0;exitDy=0;" parent="1" source="200" edge="1">
                    <mxGeometry width="50" height="50" relative="1" as="geometry">
                        <mxPoint x="460" y="378" as="sourcePoint"/>
                        <mxPoint x="230" y="288" as="targetPoint"/>
                        <Array as="points">
                            <mxPoint x="1075" y="68"/>
                            <mxPoint x="400" y="68"/>
                            <mxPoint x="400" y="288"/>
                        </Array>
                    </mxGeometry>
                </mxCell>
                <mxCell id="206" value="串口" style="rounded=0;whiteSpace=wrap;html=1;fillColor=#e3c800;fontColor=#000000;strokeColor=#B09500;" parent="1" vertex="1">
                    <mxGeometry x="600" y="295" width="30" height="20" as="geometry"/>
                </mxCell>
                <mxCell id="207" value="" style="endArrow=none;html=1;rounded=0;strokeColor=#005700;strokeWidth=4;exitX=1.003;exitY=0.617;exitDx=0;exitDy=0;exitPerimeter=0;entryX=0;entryY=0.5;entryDx=0;entryDy=0;fillColor=#008a00;" parent="1" source="154" target="206" edge="1">
                    <mxGeometry width="50" height="50" relative="1" as="geometry">
                        <mxPoint x="500" y="398" as="sourcePoint"/>
                        <mxPoint x="610" y="306" as="targetPoint"/>
                    </mxGeometry>
                </mxCell>
                <mxCell id="209" value="Can3" style="rounded=0;whiteSpace=wrap;html=1;fillColor=#e3c800;fontColor=#000000;strokeColor=#B09500;" parent="1" vertex="1">
                    <mxGeometry x="650" y="245" width="30" height="20" as="geometry"/>
                </mxCell>
                <mxCell id="216" value="" style="endArrow=none;html=1;rounded=0;strokeColor=#615F5D;entryX=1;entryY=0.25;entryDx=0;entryDy=0;strokeWidth=5;exitX=0;exitY=0.25;exitDx=0;exitDy=0;" parent="1" source="206" target="200" edge="1">
                    <mxGeometry width="50" height="50" relative="1" as="geometry">
                        <mxPoint x="580" y="48" as="sourcePoint"/>
                        <mxPoint x="1100" y="378" as="targetPoint"/>
                        <Array as="points">
                            <mxPoint x="590" y="298"/>
                            <mxPoint x="590" y="48"/>
                            <mxPoint x="1090" y="48"/>
                        </Array>
                    </mxGeometry>
                </mxCell>
                <mxCell id="217" value="&lt;font color=&quot;#000000&quot; style=&quot;font-size: 12px;&quot;&gt;学生串口，用于自定义控制器&lt;/font&gt;" style="edgeLabel;html=1;align=center;verticalAlign=middle;resizable=0;points=[];labelBackgroundColor=none;fontSize=12;fontStyle=1;horizontal=0;" parent="216" vertex="1" connectable="0">
                    <mxGeometry x="-0.1356" y="-1" relative="1" as="geometry">
                        <mxPoint x="-253" y="164" as="offset"/>
                    </mxGeometry>
                </mxCell>
                <mxCell id="224" value="YAW轴电机&lt;br&gt;LKMF9025" style="rounded=0;whiteSpace=wrap;html=1;direction=west;flipV=1;" parent="1" vertex="1">
                    <mxGeometry x="630" y="175" width="70" height="35" as="geometry"/>
                </mxCell>
                <mxCell id="225" value="" style="shape=link;html=1;exitX=0.5;exitY=0;exitDx=0;exitDy=0;entryX=0.5;entryY=0;entryDx=0;entryDy=0;strokeWidth=3;fillColor=#e3c800;strokeColor=#B09500;rounded=0;" parent="1" source="209" target="224" edge="1">
                    <mxGeometry width="100" relative="1" as="geometry">
                        <mxPoint x="790" y="285" as="sourcePoint"/>
                        <mxPoint x="875" y="245.00000000000023" as="targetPoint"/>
                        <Array as="points"/>
                    </mxGeometry>
                </mxCell>
                <mxCell id="227" value="Can" style="rounded=0;whiteSpace=wrap;html=1;fillColor=#e3c800;fontColor=#000000;strokeColor=#B09500;" parent="1" vertex="1">
                    <mxGeometry x="800" y="194.75" width="100" height="20" as="geometry"/>
                </mxCell>
                <mxCell id="228" value="Xt30" style="rounded=0;whiteSpace=wrap;html=1;fillColor=#e51400;fontColor=#ffffff;strokeColor=#B20000;" parent="1" vertex="1">
                    <mxGeometry x="870" y="134.75" width="30" height="60" as="geometry"/>
                </mxCell>
                <mxCell id="229" value="Xt30" style="rounded=0;whiteSpace=wrap;html=1;fillColor=#e51400;fontColor=#ffffff;strokeColor=#B20000;" parent="1" vertex="1">
                    <mxGeometry x="800" y="135" width="30" height="60" as="geometry"/>
                </mxCell>
                <mxCell id="230" value="" style="shape=link;html=1;rounded=0;shadow=0;sketch=0;strokeWidth=5;fontSize=12;fontColor=#000000;edgeStyle=orthogonalEdgeStyle;fillColor=#e51400;strokeColor=#B20000;entryX=0;entryY=0.5;entryDx=0;entryDy=0;exitX=0.5;exitY=1;exitDx=0;exitDy=0;" parent="1" source="224" target="229" edge="1">
                    <mxGeometry width="100" relative="1" as="geometry">
                        <mxPoint x="310" y="390" as="sourcePoint"/>
                        <mxPoint x="760" y="445" as="targetPoint"/>
                        <Array as="points">
                            <mxPoint x="665" y="158"/>
                            <mxPoint x="800" y="158"/>
                        </Array>
                    </mxGeometry>
                </mxCell>
                <mxCell id="238" value="" style="shape=link;html=1;fillColor=#e3c800;strokeColor=#B09500;shadow=0;rounded=0;strokeWidth=3;entryX=1;entryY=0.5;entryDx=0;entryDy=0;exitX=1;exitY=0.5;exitDx=0;exitDy=0;" parent="1" source="252" target="8" edge="1">
                    <mxGeometry width="100" relative="1" as="geometry">
                        <mxPoint x="1045.553515625" y="406.5" as="sourcePoint"/>
                        <mxPoint x="584.45" y="103.5" as="targetPoint"/>
                        <Array as="points">
                            <mxPoint x="1046" y="540"/>
                            <mxPoint x="1046" y="88"/>
                            <mxPoint x="600" y="88"/>
                            <mxPoint x="600" y="160"/>
                            <mxPoint x="600" y="125"/>
                        </Array>
                    </mxGeometry>
                </mxCell>
                <mxCell id="232" value="GPIO" style="rounded=0;whiteSpace=wrap;html=1;fillColor=#e3c800;fontColor=#000000;strokeColor=#B09500;" parent="1" vertex="1">
                    <mxGeometry x="700" y="315" width="30" height="20" as="geometry"/>
                </mxCell>
                <mxCell id="233" value="电磁阀继电器&lt;br&gt;气泵继电器" style="rounded=0;whiteSpace=wrap;html=1;direction=west;flipV=1;" parent="1" vertex="1">
                    <mxGeometry x="770" y="308.75" width="100" height="35" as="geometry"/>
                </mxCell>
                <mxCell id="234" value="" style="endArrow=none;html=1;rounded=0;strokeColor=#131111;strokeWidth=5;exitX=1;exitY=0.5;exitDx=0;exitDy=0;entryX=1;entryY=0.5;entryDx=0;entryDy=0;" parent="1" source="233" target="232" edge="1">
                    <mxGeometry width="50" height="50" relative="1" as="geometry">
                        <mxPoint x="910" y="218" as="sourcePoint"/>
                        <mxPoint x="960" y="168" as="targetPoint"/>
                    </mxGeometry>
                </mxCell>
                <mxCell id="235" value="" style="shape=link;html=1;rounded=0;shadow=0;sketch=0;strokeWidth=5;fillColor=#e51400;strokeColor=#B20000;exitX=0.5;exitY=1;exitDx=0;exitDy=0;" parent="1" source="233" edge="1">
                    <mxGeometry width="100" relative="1" as="geometry">
                        <mxPoint x="695" y="355" as="sourcePoint"/>
                        <mxPoint x="800" y="168" as="targetPoint"/>
                        <Array as="points">
                            <mxPoint x="820" y="278"/>
                            <mxPoint x="780" y="278"/>
                            <mxPoint x="780" y="168"/>
                        </Array>
                    </mxGeometry>
                </mxCell>
                <mxCell id="236" value="PITCH1轴电机&lt;br&gt;LKMF9025" style="rounded=0;whiteSpace=wrap;html=1;direction=west;flipV=1;" parent="1" vertex="1">
                    <mxGeometry x="665" y="400.25" width="100" height="35" as="geometry"/>
                </mxCell>
                <mxCell id="237" value="PITCH2轴电机&lt;br&gt;LKMF9025" style="rounded=0;whiteSpace=wrap;html=1;direction=west;flipV=1;" parent="1" vertex="1">
                    <mxGeometry x="665" y="435" width="100" height="35" as="geometry"/>
                </mxCell>
                <mxCell id="239" value="" style="shape=link;html=1;entryX=1;entryY=0.5;entryDx=0;entryDy=0;fillColor=#e3c800;strokeColor=#B09500;shadow=0;rounded=0;strokeWidth=3;exitX=1;exitY=0.5;exitDx=0;exitDy=0;" parent="1" source="241" target="19" edge="1">
                    <mxGeometry width="100" relative="1" as="geometry">
                        <mxPoint x="1030" y="448" as="sourcePoint"/>
                        <mxPoint x="590" y="224.75" as="targetPoint"/>
                        <Array as="points">
                            <mxPoint x="1030" y="390"/>
                            <mxPoint x="1030" y="98"/>
                            <mxPoint x="920" y="98"/>
                            <mxPoint x="920" y="125"/>
                        </Array>
                    </mxGeometry>
                </mxCell>
                <mxCell id="240" value="臂上&lt;br&gt;中心板&lt;br&gt;1" style="rounded=0;whiteSpace=wrap;html=1;fillColor=#60a917;fontColor=#ffffff;strokeColor=#2D7600;" parent="1" vertex="1">
                    <mxGeometry x="860" y="380" width="100" height="100" as="geometry"/>
                </mxCell>
                <mxCell id="241" value="Can" style="rounded=0;whiteSpace=wrap;html=1;fillColor=#e3c800;fontColor=#000000;strokeColor=#B09500;" parent="1" vertex="1">
                    <mxGeometry x="860" y="380.25" width="100" height="20" as="geometry"/>
                </mxCell>
                <mxCell id="242" value="Can" style="rounded=0;whiteSpace=wrap;html=1;fillColor=#e3c800;fontColor=#000000;strokeColor=#B09500;" parent="1" vertex="1">
                    <mxGeometry x="860" y="460" width="100" height="20" as="geometry"/>
                </mxCell>
                <mxCell id="243" value="Xt30" style="rounded=0;whiteSpace=wrap;html=1;fillColor=#e51400;fontColor=#ffffff;strokeColor=#B20000;" parent="1" vertex="1">
                    <mxGeometry x="930" y="400" width="30" height="60" as="geometry"/>
                </mxCell>
                <mxCell id="244" value="Xt30" style="rounded=0;whiteSpace=wrap;html=1;fillColor=#e51400;fontColor=#ffffff;strokeColor=#B20000;" parent="1" vertex="1">
                    <mxGeometry x="860" y="400.25" width="30" height="60" as="geometry"/>
                </mxCell>
                <mxCell id="246" value="" style="shape=link;html=1;rounded=0;shadow=0;sketch=0;strokeWidth=5;fillColor=#e51400;strokeColor=#B20000;exitX=1;exitY=0.5;exitDx=0;exitDy=0;entryX=1;entryY=0.5;entryDx=0;entryDy=0;" parent="1" source="243" target="228" edge="1">
                    <mxGeometry width="100" relative="1" as="geometry">
                        <mxPoint x="830" y="318.75" as="sourcePoint"/>
                        <mxPoint x="810" y="178" as="targetPoint"/>
                        <Array as="points">
                            <mxPoint x="1010" y="428"/>
                            <mxPoint x="1010" y="108"/>
                            <mxPoint x="930" y="108"/>
                            <mxPoint x="930" y="165"/>
                        </Array>
                    </mxGeometry>
                </mxCell>
                <mxCell id="247" value="" style="shape=link;html=1;rounded=0;shadow=0;sketch=0;strokeWidth=5;fillColor=#e51400;strokeColor=#B20000;exitX=0;exitY=0.25;exitDx=0;exitDy=0;entryX=0;entryY=0.5;entryDx=0;entryDy=0;" parent="1" source="244" target="236" edge="1">
                    <mxGeometry width="100" relative="1" as="geometry">
                        <mxPoint x="830" y="318.75" as="sourcePoint"/>
                        <mxPoint x="810" y="178" as="targetPoint"/>
                        <Array as="points"/>
                    </mxGeometry>
                </mxCell>
                <mxCell id="248" value="" style="shape=link;html=1;rounded=0;shadow=0;sketch=0;strokeWidth=5;fillColor=#e51400;strokeColor=#B20000;entryX=0;entryY=0.75;entryDx=0;entryDy=0;" parent="1" target="237" edge="1">
                    <mxGeometry width="100" relative="1" as="geometry">
                        <mxPoint x="860" y="438" as="sourcePoint"/>
                        <mxPoint x="840" y="427.5" as="targetPoint"/>
                        <Array as="points"/>
                    </mxGeometry>
                </mxCell>
                <mxCell id="249" value="" style="shape=link;html=1;exitX=0;exitY=0.75;exitDx=0;exitDy=0;entryX=0;entryY=0.5;entryDx=0;entryDy=0;strokeWidth=3;fillColor=#e3c800;strokeColor=#B09500;rounded=0;" parent="1" source="236" target="241" edge="1">
                    <mxGeometry width="100" relative="1" as="geometry">
                        <mxPoint x="725" y="255" as="sourcePoint"/>
                        <mxPoint x="810" y="215.00000000000023" as="targetPoint"/>
                        <Array as="points"/>
                    </mxGeometry>
                </mxCell>
                <mxCell id="250" value="" style="shape=link;html=1;exitX=0;exitY=0.25;exitDx=0;exitDy=0;entryX=0;entryY=0.5;entryDx=0;entryDy=0;strokeWidth=3;fillColor=#e3c800;strokeColor=#B09500;rounded=0;" parent="1" source="237" target="242" edge="1">
                    <mxGeometry width="100" relative="1" as="geometry">
                        <mxPoint x="765" y="410" as="sourcePoint"/>
                        <mxPoint x="870" y="400.25" as="targetPoint"/>
                        <Array as="points"/>
                    </mxGeometry>
                </mxCell>
                <mxCell id="251" value="臂上&lt;br&gt;中心板&lt;br&gt;2" style="rounded=0;whiteSpace=wrap;html=1;fillColor=#60a917;fontColor=#ffffff;strokeColor=#2D7600;" parent="1" vertex="1">
                    <mxGeometry x="860" y="528" width="100" height="100" as="geometry"/>
                </mxCell>
                <mxCell id="252" value="Can" style="rounded=0;whiteSpace=wrap;html=1;fillColor=#e3c800;fontColor=#000000;strokeColor=#B09500;" parent="1" vertex="1">
                    <mxGeometry x="860" y="528.25" width="100" height="20" as="geometry"/>
                </mxCell>
                <mxCell id="253" value="Can" style="rounded=0;whiteSpace=wrap;html=1;fillColor=#e3c800;fontColor=#000000;strokeColor=#B09500;" parent="1" vertex="1">
                    <mxGeometry x="860" y="608" width="100" height="20" as="geometry"/>
                </mxCell>
                <mxCell id="254" value="Xt30" style="rounded=0;whiteSpace=wrap;html=1;fillColor=#e51400;fontColor=#ffffff;strokeColor=#B20000;" parent="1" vertex="1">
                    <mxGeometry x="930" y="548" width="30" height="60" as="geometry"/>
                </mxCell>
                <mxCell id="255" value="Xt30" style="rounded=0;whiteSpace=wrap;html=1;fillColor=#e51400;fontColor=#ffffff;strokeColor=#B20000;" parent="1" vertex="1">
                    <mxGeometry x="860" y="548.25" width="30" height="60" as="geometry"/>
                </mxCell>
                <mxCell id="256" value="" style="shape=link;html=1;rounded=0;shadow=0;sketch=0;strokeWidth=5;fillColor=#e51400;strokeColor=#B20000;exitX=1;exitY=0.5;exitDx=0;exitDy=0;entryX=1;entryY=0.5;entryDx=0;entryDy=0;" parent="1" source="254" target="228" edge="1">
                    <mxGeometry width="100" relative="1" as="geometry">
                        <mxPoint x="970" y="440" as="sourcePoint"/>
                        <mxPoint x="910" y="174.75" as="targetPoint"/>
                        <Array as="points">
                            <mxPoint x="1010" y="578"/>
                            <mxPoint x="1010" y="108"/>
                            <mxPoint x="930" y="108"/>
                            <mxPoint x="930" y="165"/>
                        </Array>
                    </mxGeometry>
                </mxCell>
                <mxCell id="258" value="ROLL轴6020" style="rounded=0;whiteSpace=wrap;html=1;direction=west;flipV=1;" parent="1" vertex="1">
                    <mxGeometry x="590" y="538" width="100" height="35" as="geometry"/>
                </mxCell>
                <mxCell id="259" value="2006电调*2" style="rounded=0;whiteSpace=wrap;html=1;direction=west;flipV=1;" parent="1" vertex="1">
                    <mxGeometry x="700" y="573" width="70" height="32.5" as="geometry"/>
                </mxCell>
                <mxCell id="260" value="2*2006电机&lt;br&gt;正交并联pitch roll" style="rounded=0;whiteSpace=wrap;html=1;direction=west;flipV=1;" parent="1" vertex="1">
                    <mxGeometry x="590" y="573" width="110" height="35" as="geometry"/>
                </mxCell>
                <mxCell id="262" value="" style="shape=link;html=1;rounded=0;shadow=0;sketch=0;strokeWidth=5;fillColor=#e51400;strokeColor=#B20000;entryX=0;entryY=0.25;entryDx=0;entryDy=0;exitX=0;exitY=0.25;exitDx=0;exitDy=0;" parent="1" source="255" target="258" edge="1">
                    <mxGeometry width="100" relative="1" as="geometry">
                        <mxPoint x="870" y="448" as="sourcePoint"/>
                        <mxPoint x="775" y="453.75" as="targetPoint"/>
                        <Array as="points"/>
                    </mxGeometry>
                </mxCell>
                <mxCell id="263" value="" style="shape=link;html=1;rounded=0;shadow=0;sketch=0;strokeWidth=5;fillColor=#e51400;strokeColor=#B20000;entryX=0;entryY=0.5;entryDx=0;entryDy=0;exitX=0.107;exitY=0.626;exitDx=0;exitDy=0;exitPerimeter=0;" parent="1" source="255" target="259" edge="1">
                    <mxGeometry width="100" relative="1" as="geometry">
                        <mxPoint x="870" y="573.25" as="sourcePoint"/>
                        <mxPoint x="700" y="574.25" as="targetPoint"/>
                        <Array as="points"/>
                    </mxGeometry>
                </mxCell>
                <mxCell id="264" value="" style="shape=link;html=1;exitX=0;exitY=0.75;exitDx=0;exitDy=0;entryX=0.024;entryY=0.13;entryDx=0;entryDy=0;strokeWidth=3;fillColor=#e3c800;strokeColor=#B09500;rounded=0;entryPerimeter=0;" parent="1" source="258" target="251" edge="1">
                    <mxGeometry width="100" relative="1" as="geometry">
                        <mxPoint x="775" y="419" as="sourcePoint"/>
                        <mxPoint x="870" y="400.25" as="targetPoint"/>
                        <Array as="points"/>
                    </mxGeometry>
                </mxCell>
                <mxCell id="265" value="" style="shape=link;html=1;exitX=0.5;exitY=0;exitDx=0;exitDy=0;entryX=0;entryY=0.5;entryDx=0;entryDy=0;strokeWidth=3;fillColor=#e3c800;strokeColor=#B09500;rounded=0;" parent="1" source="259" target="253" edge="1">
                    <mxGeometry width="100" relative="1" as="geometry">
                        <mxPoint x="775" y="471.25" as="sourcePoint"/>
                        <mxPoint x="870" y="480" as="targetPoint"/>
                        <Array as="points">
                            <mxPoint x="735" y="618"/>
                        </Array>
                    </mxGeometry>
                </mxCell>
                <mxCell id="144" value="滑环及转接板" style="rounded=1;whiteSpace=wrap;html=1;dashed=1;strokeColor=#24B3A9;strokeWidth=4;fontSize=18;fontColor=#000000;fillColor=none;fontStyle=1" parent="1" vertex="1">
                    <mxGeometry x="980" y="183.38" width="170" height="143.25" as="geometry"/>
                </mxCell>
                <mxCell id="273" value="上层&lt;br&gt;机械臂" style="text;html=1;strokeColor=none;fillColor=none;align=center;verticalAlign=middle;whiteSpace=wrap;rounded=0;strokeWidth=7;fontColor=#000000;fontStyle=1;fontSize=22;" parent="1" vertex="1">
                    <mxGeometry x="570" y="398" width="90" height="30" as="geometry"/>
                </mxCell>
                <mxCell id="132" value="" style="rounded=0;whiteSpace=wrap;html=1;strokeColor=#030202;strokeWidth=4;fillColor=none;fontSize=10;dashed=1;" parent="1" vertex="1">
                    <mxGeometry x="550" y="380" width="440" height="258" as="geometry"/>
                </mxCell>
                <mxCell id="275" value="&lt;font color=&quot;#000000&quot; style=&quot;font-size: 12px;&quot;&gt;学生串口，用于读取比赛信息&lt;/font&gt;" style="edgeLabel;html=1;align=center;verticalAlign=middle;resizable=0;points=[];labelBackgroundColor=none;fontSize=12;fontStyle=1" parent="1" vertex="1" connectable="0">
                    <mxGeometry x="500.00196097281446" y="301.5" as="geometry"/>
                </mxCell>
                <mxCell id="282" value="说明：&lt;br&gt;电调与电机连接的7pin线与3相线均已省略&lt;br&gt;&amp;nbsp; &amp;nbsp; &amp;nbsp; &amp;nbsp; 红粗线为供电，AWG18粗线，一组两根+-&lt;br&gt;&amp;nbsp; &amp;nbsp; &amp;nbsp; &amp;nbsp; 黄细线为can线，AWG28细线，一组俩根HL&lt;br&gt;&amp;nbsp; &amp;nbsp; &amp;nbsp; &amp;nbsp; 黑线为裁判系统航空线&lt;br&gt;&amp;nbsp; &amp;nbsp; &amp;nbsp; &amp;nbsp; 其余细线为其他线材，细线，根数不定" style="text;strokeColor=none;fillColor=none;html=1;whiteSpace=wrap;verticalAlign=middle;overflow=hidden;dashed=1;strokeWidth=4;fontSize=18;fontColor=#000000;fontStyle=1" vertex="1" parent="1">
                    <mxGeometry x="70" y="459.25" width="440" height="158" as="geometry"/>
                </mxCell>
                <mxCell id="283" value="" style="shape=link;html=1;rounded=0;shadow=0;sketch=0;strokeWidth=5;exitX=0;exitY=0.5;exitDx=0;exitDy=0;fillColor=#e51400;strokeColor=#B20000;" edge="1" parent="1">
                    <mxGeometry width="100" relative="1" as="geometry">
                        <mxPoint x="40" y="532" as="sourcePoint"/>
                        <mxPoint x="100" y="532" as="targetPoint"/>
                    </mxGeometry>
                </mxCell>
                <mxCell id="284" value="" style="shape=link;html=1;rounded=0;shadow=0;sketch=0;strokeWidth=3;fillColor=#e3c800;strokeColor=#B09500;edgeStyle=orthogonalEdgeStyle;" edge="1" parent="1">
                    <mxGeometry width="100" relative="1" as="geometry">
                        <mxPoint x="100" y="552" as="sourcePoint"/>
                        <mxPoint x="40" y="552" as="targetPoint"/>
                    </mxGeometry>
                </mxCell>
                <mxCell id="285" value="" style="endArrow=none;html=1;rounded=0;strokeColor=#000000;strokeWidth=5;edgeStyle=orthogonalEdgeStyle;" edge="1" parent="1">
                    <mxGeometry width="50" height="50" relative="1" as="geometry">
                        <mxPoint x="100" y="573" as="sourcePoint"/>
                        <mxPoint x="40" y="573" as="targetPoint"/>
                    </mxGeometry>
                </mxCell>
            </root>
        </mxGraphModel>
    </diagram>
</mxfile>